ffmpeg started on 2025-06-30 at 14:43:09
Report written to "D:\Convert\FFMetrics\reports\ssim_report-6.txt"
Log level: 32
Command line:
ffmpeg -hide_banner -nostdin -i "G:\\\xc0\xed\xe8\xec\xe5\\\xce\xed\xe3\xee\xe8\xed\xe3\xe8\\!_37_\xc7\xe8\xec\xe0_2025\\JamClub\\\xc3\xee\xf1\xef\xee\xe4\xe8\xed \xe8 \xef\xb8\xf1\\JamClub_Tono_to_Inu_Woof_Woof!_S01E11_1080p_HEVC.mkv" -i "G:\\\xc0\xed\xe8\xec\xe5\\\xce\xed\xe3\xee\xe8\xed\xe3\xe8\\!_37_\xc7\xe8\xec\xe0_2025\\JamClub\\\xc3\xee\xf1\xef\xee\xe4\xe8\xed \xe8 \xef\xb8\xf1\\JamClub_Tono_to_Inu_Woof_Woof!_S01E11_1080p.mp4" -lavfi "[0:v]settb=AVTB,setpts=PTS-STARTPTS,format=pix_fmts=yuv420p10,fps=24000/1001,scale=1920:1080:flags=bicubic[main];[1:v]settb=AVTB,setpts=PTS-STARTPTS,format=pix_fmts=yuv420p,fps=24000/1001,scale=1920:1080:flags=bicubic[ref];[main][ref]ssim=eof_action=endall:stats_file='D\\:/Convert/FFMetrics/logs/ssim_logfile-6.txt'" -f null -
Input #0, matroska,webm, from 'G:\Аниме\Онгоинги\!_37_Зима_2025\JamClub\Господин и пёс\JamClub_Tono_to_Inu_Woof_Woof!_S01E11_1080p_HEVC.mkv':
  Metadata:
    COMPATIBLE_BRANDS: qt  
    MAJOR_BRAND     : qt  
    MINOR_VERSION   : 512
    ENCODER         : Lavf61.7.100
  Duration: 00:02:57.26, start: -0.021000, bitrate: 1618 kb/s
  Stream #0:0(eng): Video: hevc (Main 10), yuv420p10le(tv, bt709, progressive), 1920x1080 [SAR 1:1 DAR 16:9], 23.98 fps, 23.98 tbr, 1k tbn (default)
      Metadata:
        HANDLER_NAME    : VideoHandler
        VENDOR_ID       : FFMP
        ENCODER         : Lavc61.19.100 libx265
        BPS             : 1425690
        DURATION        : 00:02:57.218708333
        NUMBER_OF_FRAMES: 4249
        NUMBER_OF_BYTES : 31582260
        _STATISTICS_WRITING_APP: mkvpropedit v66.0.0 ('Josie') 64-bit
        _STATISTICS_WRITING_DATE_UTC: 2025-06-28 16:00:03
        _STATISTICS_TAGS: BPS DURATION NUMBER_OF_FRAMES NUMBER_OF_BYTES
  Stream #0:1(eng): Audio: aac (LC), 48000 Hz, stereo, fltp (default)
      Metadata:
        HANDLER_NAME    : SoundHandler
        VENDOR_ID       : [0][0][0][0]
        ENCODER         : Lavc61.19.100 aac
        BPS             : 188489
        DURATION        : 00:02:57.237000000
        NUMBER_OF_FRAMES: 8309
        NUMBER_OF_BYTES : 4175925
        _STATISTICS_WRITING_APP: mkvpropedit v66.0.0 ('Josie') 64-bit
        _STATISTICS_WRITING_DATE_UTC: 2025-06-28 16:00:03
        _STATISTICS_TAGS: BPS DURATION NUMBER_OF_FRAMES NUMBER_OF_BYTES
Input #1, mov,mp4,m4a,3gp,3g2,mj2, from 'G:\Аниме\Онгоинги\!_37_Зима_2025\JamClub\Господин и пёс\JamClub_Tono_to_Inu_Woof_Woof!_S01E11_1080p.mp4':
  Metadata:
    major_brand     : qt  
    minor_version   : 512
    compatible_brands: qt  
    encoder         : Lavf54.18.100
  Duration: 00:02:57.22, start: 0.000000, bitrate: 2068 kb/s
  Stream #1:0[0x1](eng): Video: h264 (High) (avc1 / 0x31637661), yuv420p(progressive), 1920x1080 [SAR 1:1 DAR 16:9], 1934 kb/s, 23.98 fps, 23.98 tbr, 24k tbn (default)
      Metadata:
        handler_name    : VideoHandler
        vendor_id       : FFMP
        encoder         : libx264
  Stream #1:1[0x2](eng): Audio: aac (LC) (mp4a / 0x6134706D), 48000 Hz, stereo, fltp, 128 kb/s (default)
      Metadata:
        handler_name    : SoundHandler
        vendor_id       : [0][0][0][0]
Stream mapping:
  Stream #0:0 (hevc) -> settb:default
  Stream #1:0 (h264) -> settb:default
  ssim:default -> Stream #0:0 (wrapped_avframe)
  Stream #0:1 -> #0:1 (aac (native) -> pcm_s16le (native))
[swscaler @ 0000022c919977c0] No accelerated colorspace conversion found from yuv420p to bgr48le.
[swscaler @ 0000022c91b45dc0] No accelerated colorspace conversion found from yuv420p to bgr48le.
[swscaler @ 0000022c91c6ca40] No accelerated colorspace conversion found from yuv420p to bgr48le.
[swscaler @ 0000022c91df7240] No accelerated colorspace conversion found from yuv420p to bgr48le.
[swscaler @ 0000022c91faee40] No accelerated colorspace conversion found from yuv420p to bgr48le.
[swscaler @ 0000022c91fc8e00] No accelerated colorspace conversion found from yuv420p to bgr48le.
[swscaler @ 0000022c92196040] No accelerated colorspace conversion found from yuv420p to bgr48le.
[swscaler @ 0000022c921fb040] No accelerated colorspace conversion found from yuv420p to bgr48le.
[swscaler @ 0000022c9753ec80] No accelerated colorspace conversion found from yuv420p to bgr48le.
[swscaler @ 0000022c9772b040] No accelerated colorspace conversion found from yuv420p to bgr48le.
[swscaler @ 0000022c9784a040] No accelerated colorspace conversion found from yuv420p to bgr48le.
[swscaler @ 0000022c978c0040] No accelerated colorspace conversion found from yuv420p to bgr48le.
[swscaler @ 0000022c97aefd40] No accelerated colorspace conversion found from yuv420p to bgr48le.
[swscaler @ 0000022c97be7140] No accelerated colorspace conversion found from yuv420p to bgr48le.
[swscaler @ 0000022c97c21140] No accelerated colorspace conversion found from yuv420p to bgr48le.
[swscaler @ 0000022c97e89d00] No accelerated colorspace conversion found from yuv420p to bgr48le.
Output #0, null, to 'pipe:':
  Metadata:
    COMPATIBLE_BRANDS: qt  
    MAJOR_BRAND     : qt  
    MINOR_VERSION   : 512
    encoder         : Lavf61.7.100
  Stream #0:0: Video: wrapped_avframe, yuv420p10le(tv, bt709, progressive), 1920x1080 [SAR 1:1 DAR 16:9], q=2-31, 200 kb/s, 23.98 fps, 23.98 tbn
      Metadata:
        encoder         : Lavc61.19.100 wrapped_avframe
  Stream #0:1(eng): Audio: pcm_s16le, 48000 Hz, stereo, s16, 1536 kb/s (default)
      Metadata:
        HANDLER_NAME    : SoundHandler
        VENDOR_ID       : [0][0][0][0]
        _STATISTICS_TAGS: BPS DURATION NUMBER_OF_FRAMES NUMBER_OF_BYTES
        BPS             : 188489
        DURATION        : 00:02:57.237000000
        NUMBER_OF_FRAMES: 8309
        NUMBER_OF_BYTES : 4175925
        _STATISTICS_WRITING_APP: mkvpropedit v66.0.0 ('Josie') 64-bit
        _STATISTICS_WRITING_DATE_UTC: 2025-06-28 16:00:03
        encoder         : Lavc61.19.100 pcm_s16le
frame=   31 fps=0.0 q=-0.0 size=N/A time=00:00:01.29 bitrate=N/A speed=2.46x    frame=   62 fps= 60 q=-0.0 size=N/A time=00:00:02.58 bitrate=N/A speed= 2.5x    frame=  105 fps= 68 q=-0.0 size=N/A time=00:00:04.37 bitrate=N/A speed=2.83x    frame=  143 fps= 69 q=-0.0 size=N/A time=00:00:05.96 bitrate=N/A speed=2.88x    frame=  178 fps= 69 q=-0.0 size=N/A time=00:00:07.42 bitrate=N/A speed=2.88x    frame=  209 fps= 68 q=-0.0 size=N/A time=00:00:08.71 bitrate=N/A speed=2.82x    frame=  254 fps= 70 q=-0.0 size=N/A time=00:00:10.59 bitrate=N/A speed=2.93x    frame=  293 fps= 71 q=-0.0 size=N/A time=00:00:12.22 bitrate=N/A speed=2.96x    frame=  326 fps= 70 q=-0.0 size=N/A time=00:00:13.59 bitrate=N/A speed=2.93x    frame=  368 fps= 71 q=-0.0 size=N/A time=00:00:15.34 bitrate=N/A speed=2.97x    frame=  405 fps= 71 q=-0.0 size=N/A time=00:00:16.89 bitrate=N/A speed=2.98x    frame=  438 fps= 71 q=-0.0 size=N/A time=00:00:18.26 bitrate=N/A speed=2.95x    frame=  482 fps= 72 q=-0.0 size=N/A time=00:00:20.10 bitrate=N/A speed=   3x    frame=  520 fps= 72 q=-0.0 size=N/A time=00:00:21.68 bitrate=N/A speed=   3x    frame=  560 fps= 72 q=-0.0 size=N/A time=00:00:23.35 bitrate=N/A speed=3.02x    frame=  598 fps= 72 q=-0.0 size=N/A time=00:00:24.94 bitrate=N/A speed=3.02x    frame=  635 fps= 72 q=-0.0 size=N/A time=00:00:26.48 bitrate=N/A speed=3.02x    frame=  675 fps= 73 q=-0.0 size=N/A time=00:00:28.15 bitrate=N/A speed=3.03x    frame=  707 fps= 72 q=-0.0 size=N/A time=00:00:29.48 bitrate=N/A speed=3.01x    frame=  751 fps= 73 q=-0.0 size=N/A time=00:00:31.32 bitrate=N/A speed=3.04x    frame=  783 fps= 72 q=-0.0 size=N/A time=00:00:32.65 bitrate=N/A speed=3.01x    frame=  829 fps= 73 q=-0.0 size=N/A time=00:00:34.57 bitrate=N/A speed=3.04x    frame=  866 fps= 73 q=-0.0 size=N/A time=00:00:36.11 bitrate=N/A speed=3.04x    frame=  905 fps= 73 q=-0.0 size=N/A time=00:00:37.74 bitrate=N/A speed=3.04x    frame=  936 fps= 73 q=-0.0 size=N/A time=00:00:39.03 bitrate=N/A speed=3.02x    frame=  981 fps= 73 q=-0.0 size=N/A time=00:00:40.91 bitrate=N/A speed=3.05x    frame= 1013 fps= 73 q=-0.0 size=N/A time=00:00:42.25 bitrate=N/A speed=3.03x    frame= 1057 fps= 73 q=-0.0 size=N/A time=00:00:44.08 bitrate=N/A speed=3.05x    frame= 1094 fps= 73 q=-0.0 size=N/A time=00:00:45.62 bitrate=N/A speed=3.05x    frame= 1134 fps= 73 q=-0.0 size=N/A time=00:00:47.29 bitrate=N/A speed=3.05x    frame= 1169 fps= 73 q=-0.0 size=N/A time=00:00:48.75 bitrate=N/A speed=3.05x    frame= 1209 fps= 73 q=-0.0 size=N/A time=00:00:50.42 bitrate=N/A speed=3.05x    frame= 1246 fps= 73 q=-0.0 size=N/A time=00:00:51.96 bitrate=N/A speed=3.05x    frame= 1280 fps= 73 q=-0.0 size=N/A time=00:00:53.38 bitrate=N/A speed=3.04x    frame= 1322 fps= 73 q=-0.0 size=N/A time=00:00:55.13 bitrate=N/A speed=3.05x    frame= 1360 fps= 73 q=-0.0 size=N/A time=00:00:56.72 bitrate=N/A speed=3.05x    frame= 1397 fps= 73 q=-0.0 size=N/A time=00:00:58.26 bitrate=N/A speed=3.05x    frame= 1435 fps= 73 q=-0.0 size=N/A time=00:00:59.85 bitrate=N/A speed=3.05x    frame= 1465 fps= 73 q=-0.0 size=N/A time=00:01:01.10 bitrate=N/A speed=3.04x    frame= 1510 fps= 73 q=-0.0 size=N/A time=00:01:02.97 bitrate=N/A speed=3.05x    frame= 1544 fps= 73 q=-0.0 size=N/A time=00:01:04.39 bitrate=N/A speed=3.04x    frame= 1586 fps= 73 q=-0.0 size=N/A time=00:01:06.14 bitrate=N/A speed=3.05x    frame= 1621 fps= 73 q=-0.0 size=N/A time=00:01:07.60 bitrate=N/A speed=3.05x    frame= 1660 fps= 73 q=-0.0 size=N/A time=00:01:09.23 bitrate=N/A speed=3.05x    frame= 1698 fps= 73 q=-0.0 size=N/A time=00:01:10.82 bitrate=N/A speed=3.05x    frame= 1735 fps= 73 q=-0.0 size=N/A time=00:01:12.36 bitrate=N/A speed=3.05x    frame= 1772 fps= 73 q=-0.0 size=N/A time=00:01:13.90 bitrate=N/A speed=3.05x    frame= 1811 fps= 73 q=-0.0 size=N/A time=00:01:15.53 bitrate=N/A speed=3.05x    frame= 1848 fps= 73 q=-0.0 size=N/A time=00:01:17.07 bitrate=N/A speed=3.05x    frame= 1882 fps= 73 q=-0.0 size=N/A time=00:01:18.49 bitrate=N/A speed=3.04x    frame= 1925 fps= 73 q=-0.0 size=N/A time=00:01:20.28 bitrate=N/A speed=3.05x    frame= 1962 fps= 73 q=-0.0 size=N/A time=00:01:21.83 bitrate=N/A speed=3.05x    frame= 1997 fps= 73 q=-0.0 size=N/A time=00:01:23.29 bitrate=N/A speed=3.05x    frame= 2039 fps= 73 q=-0.0 size=N/A time=00:01:25.04 bitrate=N/A speed=3.05x    frame= 2076 fps= 73 q=-0.0 size=N/A time=00:01:26.58 bitrate=N/A speed=3.05x    frame= 2114 fps= 73 q=-0.0 size=N/A time=00:01:28.17 bitrate=N/A speed=3.05x    frame= 2152 fps= 73 q=-0.0 size=N/A time=00:01:29.75 bitrate=N/A speed=3.05x    frame= 2186 fps= 73 q=-0.0 size=N/A time=00:01:31.17 bitrate=N/A speed=3.05x    frame= 2228 fps= 73 q=-0.0 size=N/A time=00:01:32.92 bitrate=N/A speed=3.05x    frame= 2259 fps= 73 q=-0.0 size=N/A time=00:01:34.21 bitrate=N/A speed=3.04x    frame= 2304 fps= 73 q=-0.0 size=N/A time=00:01:36.09 bitrate=N/A speed=3.05x    frame= 2343 fps= 73 q=-0.0 size=N/A time=00:01:37.72 bitrate=N/A speed=3.05x    frame= 2379 fps= 73 q=-0.0 size=N/A time=00:01:39.22 bitrate=N/A speed=3.05x    frame= 2419 fps= 73 q=-0.0 size=N/A time=00:01:40.89 bitrate=N/A speed=3.06x    frame= 2459 fps= 73 q=-0.0 size=N/A time=00:01:42.56 bitrate=N/A speed=3.06x    frame= 2495 fps= 73 q=-0.0 size=N/A time=00:01:44.06 bitrate=N/A speed=3.06x    frame= 2534 fps= 73 q=-0.0 size=N/A time=00:01:45.68 bitrate=N/A speed=3.06x    frame= 2568 fps= 73 q=-0.0 size=N/A time=00:01:47.10 bitrate=N/A speed=3.05x    frame= 2610 fps= 73 q=-0.0 size=N/A time=00:01:48.85 bitrate=N/A speed=3.06x    frame= 2649 fps= 73 q=-0.0 size=N/A time=00:01:50.48 bitrate=N/A speed=3.06x    frame= 2687 fps= 73 q=-0.0 size=N/A time=00:01:52.07 bitrate=N/A speed=3.06x    frame= 2725 fps= 73 q=-0.0 size=N/A time=00:01:53.65 bitrate=N/A speed=3.06x    frame= 2765 fps= 73 q=-0.0 size=N/A time=00:01:55.32 bitrate=N/A speed=3.06x    frame= 2803 fps= 73 q=-0.0 size=N/A time=00:01:56.90 bitrate=N/A speed=3.06x    frame= 2841 fps= 73 q=-0.0 size=N/A time=00:01:58.49 bitrate=N/A speed=3.06x    frame= 2878 fps= 73 q=-0.0 size=N/A time=00:02:00.03 bitrate=N/A speed=3.06x    frame= 2917 fps= 73 q=-0.0 size=N/A time=00:02:01.66 bitrate=N/A speed=3.06x    frame= 2953 fps= 73 q=-0.0 size=N/A time=00:02:03.16 bitrate=N/A speed=3.06x    frame= 2989 fps= 73 q=-0.0 size=N/A time=00:02:04.66 bitrate=N/A speed=3.06x    frame= 3026 fps= 73 q=-0.0 size=N/A time=00:02:06.20 bitrate=N/A speed=3.06x    frame= 3068 fps= 73 q=-0.0 size=N/A time=00:02:07.96 bitrate=N/A speed=3.06x    frame= 3095 fps= 73 q=-0.0 size=N/A time=00:02:09.08 bitrate=N/A speed=3.05x    frame= 3142 fps= 73 q=-0.0 size=N/A time=00:02:11.04 bitrate=N/A speed=3.06x    frame= 3180 fps= 73 q=-0.0 size=N/A time=00:02:12.63 bitrate=N/A speed=3.06x    frame= 3218 fps= 73 q=-0.0 size=N/A time=00:02:14.21 bitrate=N/A speed=3.06x    frame= 3257 fps= 73 q=-0.0 size=N/A time=00:02:15.84 bitrate=N/A speed=3.06x    frame= 3293 fps= 73 q=-0.0 size=N/A time=00:02:17.34 bitrate=N/A speed=3.06x    frame= 3327 fps= 73 q=-0.0 size=N/A time=00:02:18.76 bitrate=N/A speed=3.06x    frame= 3365 fps= 73 q=-0.0 size=N/A time=00:02:20.34 bitrate=N/A speed=3.06x    frame= 3407 fps= 73 q=-0.0 size=N/A time=00:02:22.10 bitrate=N/A speed=3.06x    frame= 3441 fps= 73 q=-0.0 size=N/A time=00:02:23.51 bitrate=N/A speed=3.06x    frame= 3473 fps= 73 q=-0.0 size=N/A time=00:02:24.85 bitrate=N/A speed=3.05x    frame= 3521 fps= 73 q=-0.0 size=N/A time=00:02:26.85 bitrate=N/A speed=3.06x    frame= 3560 fps= 73 q=-0.0 size=N/A time=00:02:28.48 bitrate=N/A speed=3.06x    frame= 3588 fps= 73 q=-0.0 size=N/A time=00:02:29.64 bitrate=N/A speed=3.05x    frame= 3637 fps= 73 q=-0.0 size=N/A time=00:02:31.69 bitrate=N/A speed=3.06x    frame= 3675 fps= 73 q=-0.0 size=N/A time=00:02:33.27 bitrate=N/A speed=3.06x    frame= 3710 fps= 73 q=-0.0 size=N/A time=00:02:34.73 bitrate=N/A speed=3.06x    frame= 3750 fps= 73 q=-0.0 size=N/A time=00:02:36.40 bitrate=N/A speed=3.06x    frame= 3787 fps= 73 q=-0.0 size=N/A time=00:02:37.94 bitrate=N/A speed=3.06x    frame= 3826 fps= 73 q=-0.0 size=N/A time=00:02:39.57 bitrate=N/A speed=3.06x    frame= 3864 fps= 73 q=-0.0 size=N/A time=00:02:41.16 bitrate=N/A speed=3.06x    frame= 3903 fps= 73 q=-0.0 size=N/A time=00:02:42.78 bitrate=N/A speed=3.06x    frame= 3940 fps= 73 q=-0.0 size=N/A time=00:02:44.33 bitrate=N/A speed=3.06x    frame= 3978 fps= 73 q=-0.0 size=N/A time=00:02:45.91 bitrate=N/A speed=3.06x    frame= 4011 fps= 73 q=-0.0 size=N/A time=00:02:47.29 bitrate=N/A speed=3.06x    frame= 4054 fps= 73 q=-0.0 size=N/A time=00:02:49.08 bitrate=N/A speed=3.06x    frame= 4092 fps= 73 q=-0.0 size=N/A time=00:02:50.67 bitrate=N/A speed=3.06x    frame= 4125 fps= 73 q=-0.0 size=N/A time=00:02:52.04 bitrate=N/A speed=3.06x    frame= 4163 fps= 73 q=-0.0 size=N/A time=00:02:53.63 bitrate=N/A speed=3.06x    frame= 4208 fps= 73 q=-0.0 size=N/A time=00:02:55.50 bitrate=N/A speed=3.06x    frame= 4248 fps= 74 q=-0.0 size=N/A time=00:02:57.17 bitrate=N/A speed=3.07x    [Parsed_ssim_10 @ 0000022cfa8f7140] SSIM Y:0.993486 (21.861819) U:0.994142 (22.322556) V:0.994192 (22.359589) All:0.993713 (22.015755)
[out#0/null @ 0000022cf9fc3f80] video:1826KiB audio:33236KiB subtitle:0KiB other streams:0KiB global headers:0KiB muxing overhead: unknown
frame= 4249 fps= 73 q=-0.0 Lsize=N/A time=00:02:57.21 bitrate=N/A speed=3.07x    
